<svg xmlns="http://www.w3.org/2000/svg" viewBox="0 0 720 200">
  <defs>
    <linearGradient id="g" x1="0" y1="0" x2="0" y2="1">
      <stop offset="0%" stop-color="#2f65c8" stop-opacity="0.18"/>
      <stop offset="100%" stop-color="#2f65c8" stop-opacity="0.02"/>
    </linearGradient>
  </defs>
  <polygon points="0,200 0.0,164.9 8.1,179.3 16.2,159.3 24.3,159.3 32.4,159.3 40.4,133.5 48.5,185.0 56.6,143.8 64.7,149.0 72.8,176.0 80.9,168.3 89.0,153.3 97.1,165.2 105.2,157.7 113.3,160.8 121.3,185.0 129.4,133.5 137.5,159.3 145.6,133.5 153.7,151.8 161.8,166.7 169.9,159.3 178.0,159.3 186.1,159.3 194.2,159.3 202.2,159.3 210.3,159.3 218.4,157.5 226.5,161.1 234.6,151.5 242.7,154.1 250.8,149.4 258.9,154.8 267.0,103.4 275.1,119.4 283.1,119.4 291.2,118.5 299.3,103.4 307.4,138.0 315.5,139.4 323.6,136.4 331.7,141.0 339.8,154.9 347.9,156.6 356.0,148.2 364.0,153.6 372.1,164.4 380.2,167.1 388.3,116.6 396.4,177.2 404.5,157.3 412.6,146.0 420.7,156.8 428.8,162.8 436.9,165.7 444.9,168.6 453.0,168.4 461.1,164.4 469.2,164.4 477.3,143.9 485.4,164.4 493.5,164.4 501.6,161.5 509.7,161.6 517.8,161.6 525.8,138.2 533.9,161.6 542.0,138.2 550.1,114.8 558.2,161.6 566.3,138.2 574.4,103.7 582.5,125.8 590.6,44.5 598.7,67.9 606.7,91.3 614.8,91.3 622.9,74.0 631.0,15.0 639.1,72.6 647.2,39.8 655.3,67.9 663.4,114.8 671.5,147.7 679.6,126.3 687.6,113.7 695.7,115.3 703.8,103.9 711.9,100.3 720.0,89.8 720,200" fill="url(#g)"/>
  <polyline points="0.0,164.9 8.1,179.3 16.2,159.3 24.3,159.3 32.4,159.3 40.4,133.5 48.5,185.0 56.6,143.8 64.7,149.0 72.8,176.0 80.9,168.3 89.0,153.3 97.1,165.2 105.2,157.7 113.3,160.8 121.3,185.0 129.4,133.5 137.5,159.3 145.6,133.5 153.7,151.8 161.8,166.7 169.9,159.3 178.0,159.3 186.1,159.3 194.2,159.3 202.2,159.3 210.3,159.3 218.4,157.5 226.5,161.1 234.6,151.5 242.7,154.1 250.8,149.4 258.9,154.8 267.0,103.4 275.1,119.4 283.1,119.4 291.2,118.5 299.3,103.4 307.4,138.0 315.5,139.4 323.6,136.4 331.7,141.0 339.8,154.9 347.9,156.6 356.0,148.2 364.0,153.6 372.1,164.4 380.2,167.1 388.3,116.6 396.4,177.2 404.5,157.3 412.6,146.0 420.7,156.8 428.8,162.8 436.9,165.7 444.9,168.6 453.0,168.4 461.1,164.4 469.2,164.4 477.3,143.9 485.4,164.4 493.5,164.4 501.6,161.5 509.7,161.6 517.8,161.6 525.8,138.2 533.9,161.6 542.0,138.2 550.1,114.8 558.2,161.6 566.3,138.2 574.4,103.7 582.5,125.8 590.6,44.5 598.7,67.9 606.7,91.3 614.8,91.3 622.9,74.0 631.0,15.0 639.1,72.6 647.2,39.8 655.3,67.9 663.4,114.8 671.5,147.7 679.6,126.3 687.6,113.7 695.7,115.3 703.8,103.9 711.9,100.3 720.0,89.8" fill="none" stroke="#2f65c8" stroke-width="4" stroke-linecap="round" stroke-linejoin="round"/>
</svg>