<svg xmlns="http://www.w3.org/2000/svg" viewBox="0 0 720 200">
  <defs>
    <linearGradient id="g" x1="0" y1="0" x2="0" y2="1">
      <stop offset="0%" stop-color="#2f65c8" stop-opacity="0.18"/>
      <stop offset="100%" stop-color="#2f65c8" stop-opacity="0.02"/>
    </linearGradient>
  </defs>
  <polygon points="0,200 0.0,185.0 8.1,185.0 16.2,185.0 24.3,185.0 32.4,176.7 40.4,182.7 48.5,179.7 56.6,181.2 64.7,178.2 72.8,185.0 80.9,182.0 89.0,181.2 97.1,185.0 105.2,150.1 113.3,177.4 121.3,185.0 129.4,185.0 137.5,185.0 145.6,185.0 153.7,185.0 161.8,185.0 169.9,183.5 178.0,183.5 186.1,182.7 194.2,182.7 202.2,181.2 210.3,180.4 218.4,182.7 226.5,182.7 234.6,178.2 242.7,178.2 250.8,181.2 258.9,147.1 267.0,185.0 275.1,185.0 283.1,185.0 291.2,185.0 299.3,185.0 307.4,185.0 315.5,185.0 323.6,185.0 331.7,185.0 339.8,185.0 347.9,185.0 356.0,185.0 364.0,185.0 372.1,185.0 380.2,185.0 388.3,185.0 396.4,183.6 404.5,184.3 412.6,184.3 420.7,182.8 428.8,182.8 436.9,185.0 444.9,183.6 453.0,183.6 461.1,182.8 469.2,185.0 477.3,182.8 485.4,183.6 493.5,167.4 501.6,75.7 509.7,51.1 517.8,122.5 525.8,38.7 533.9,108.2 542.0,93.3 550.1,76.3 558.2,105.8 566.3,98.8 574.4,95.4 582.5,114.3 590.6,46.3 598.7,42.3 606.7,58.1 614.8,63.6 622.9,94.8 631.0,45.4 639.1,118.2 647.2,15.0 655.3,130.7 663.4,59.0 671.5,154.9 679.6,68.7 687.6,90.6 695.7,73.0 703.8,69.6 711.9,84.8 720.0,114.6 720,200" fill="url(#g)"/>
  <polyline points="0.0,185.0 8.1,185.0 16.2,185.0 24.3,185.0 32.4,176.7 40.4,182.7 48.5,179.7 56.6,181.2 64.7,178.2 72.8,185.0 80.9,182.0 89.0,181.2 97.1,185.0 105.2,150.1 113.3,177.4 121.3,185.0 129.4,185.0 137.5,185.0 145.6,185.0 153.7,185.0 161.8,185.0 169.9,183.5 178.0,183.5 186.1,182.7 194.2,182.7 202.2,181.2 210.3,180.4 218.4,182.7 226.5,182.7 234.6,178.2 242.7,178.2 250.8,181.2 258.9,147.1 267.0,185.0 275.1,185.0 283.1,185.0 291.2,185.0 299.3,185.0 307.4,185.0 315.5,185.0 323.6,185.0 331.7,185.0 339.8,185.0 347.9,185.0 356.0,185.0 364.0,185.0 372.1,185.0 380.2,185.0 388.3,185.0 396.4,183.6 404.5,184.3 412.6,184.3 420.7,182.8 428.8,182.8 436.9,185.0 444.9,183.6 453.0,183.6 461.1,182.8 469.2,185.0 477.3,182.8 485.4,183.6 493.5,167.4 501.6,75.7 509.7,51.1 517.8,122.5 525.8,38.7 533.9,108.2 542.0,93.3 550.1,76.3 558.2,105.8 566.3,98.8 574.4,95.4 582.5,114.3 590.6,46.3 598.7,42.3 606.7,58.1 614.8,63.6 622.9,94.8 631.0,45.4 639.1,118.2 647.2,15.0 655.3,130.7 663.4,59.0 671.5,154.9 679.6,68.7 687.6,90.6 695.7,73.0 703.8,69.6 711.9,84.8 720.0,114.6" fill="none" stroke="#2f65c8" stroke-width="4" stroke-linecap="round" stroke-linejoin="round"/>
</svg>