<svg xmlns="http://www.w3.org/2000/svg" viewBox="0 0 720 200">
  <defs>
    <linearGradient id="g" x1="0" y1="0" x2="0" y2="1">
      <stop offset="0%" stop-color="#2f65c8" stop-opacity="0.18"/>
      <stop offset="100%" stop-color="#2f65c8" stop-opacity="0.02"/>
    </linearGradient>
  </defs>
  <polygon points="0,200 0.0,185.0 8.1,185.0 16.2,185.0 24.3,184.6 32.4,183.7 40.4,185.0 48.5,184.1 56.6,185.0 64.7,184.6 72.8,181.5 80.9,183.2 89.0,184.1 97.1,182.8 105.2,183.7 113.3,182.4 121.3,183.7 129.4,184.6 137.5,184.1 145.6,184.6 153.7,184.1 161.8,184.6 169.9,184.6 178.0,183.7 186.1,184.1 194.2,183.2 202.2,185.0 210.3,183.7 218.4,184.1 226.5,181.9 234.6,183.7 242.7,181.5 250.8,184.6 258.9,183.7 267.0,185.0 275.1,185.0 283.1,184.1 291.2,185.0 299.3,182.7 307.4,183.6 315.5,185.0 323.6,185.0 331.7,185.0 339.8,184.0 347.9,185.0 356.0,184.0 364.0,184.0 372.1,185.0 380.2,185.0 388.3,185.0 396.4,184.0 404.5,183.1 412.6,184.0 420.7,185.0 428.8,184.5 436.9,183.1 444.9,184.5 453.0,185.0 461.1,184.5 469.2,183.6 477.3,183.6 485.4,184.5 493.5,185.0 501.6,184.5 509.7,184.0 517.8,184.5 525.8,185.0 533.9,183.7 542.0,184.6 550.1,184.3 558.2,175.1 566.3,164.7 574.4,165.0 582.5,169.1 590.6,169.6 598.7,165.4 606.7,174.9 614.8,164.5 622.9,111.5 631.0,120.3 639.1,161.0 647.2,27.1 655.3,15.0 663.4,80.2 671.5,110.8 679.6,143.4 687.6,147.8 695.7,159.5 703.8,123.3 711.9,153.1 720.0,147.8 720,200" fill="url(#g)"/>
  <polyline points="0.0,185.0 8.1,185.0 16.2,185.0 24.3,184.6 32.4,183.7 40.4,185.0 48.5,184.1 56.6,185.0 64.7,184.6 72.8,181.5 80.9,183.2 89.0,184.1 97.1,182.8 105.2,183.7 113.3,182.4 121.3,183.7 129.4,184.6 137.5,184.1 145.6,184.6 153.7,184.1 161.8,184.6 169.9,184.6 178.0,183.7 186.1,184.1 194.2,183.2 202.2,185.0 210.3,183.7 218.4,184.1 226.5,181.9 234.6,183.7 242.7,181.5 250.8,184.6 258.9,183.7 267.0,185.0 275.1,185.0 283.1,184.1 291.2,185.0 299.3,182.7 307.4,183.6 315.5,185.0 323.6,185.0 331.7,185.0 339.8,184.0 347.9,185.0 356.0,184.0 364.0,184.0 372.1,185.0 380.2,185.0 388.3,185.0 396.4,184.0 404.5,183.1 412.6,184.0 420.7,185.0 428.8,184.5 436.9,183.1 444.9,184.5 453.0,185.0 461.1,184.5 469.2,183.6 477.3,183.6 485.4,184.5 493.5,185.0 501.6,184.5 509.7,184.0 517.8,184.5 525.8,185.0 533.9,183.7 542.0,184.6 550.1,184.3 558.2,175.1 566.3,164.7 574.4,165.0 582.5,169.1 590.6,169.6 598.7,165.4 606.7,174.9 614.8,164.5 622.9,111.5 631.0,120.3 639.1,161.0 647.2,27.1 655.3,15.0 663.4,80.2 671.5,110.8 679.6,143.4 687.6,147.8 695.7,159.5 703.8,123.3 711.9,153.1 720.0,147.8" fill="none" stroke="#2f65c8" stroke-width="4" stroke-linecap="round" stroke-linejoin="round"/>
</svg>