<svg xmlns="http://www.w3.org/2000/svg" viewBox="0 0 720 200">
  <defs>
    <linearGradient id="g" x1="0" y1="0" x2="0" y2="1">
      <stop offset="0%" stop-color="#2f65c8" stop-opacity="0.18"/>
      <stop offset="100%" stop-color="#2f65c8" stop-opacity="0.02"/>
    </linearGradient>
  </defs>
  <polygon points="0,200 0.0,183.8 8.1,183.9 16.2,183.4 24.3,183.9 32.4,183.7 40.4,183.1 48.5,182.7 56.6,183.6 64.7,185.0 72.8,183.6 80.9,182.8 89.0,184.9 97.1,183.0 105.2,143.3 113.3,169.1 121.3,176.0 129.4,178.7 137.5,184.3 145.6,161.9 153.7,181.3 161.8,179.0 169.9,162.9 178.0,173.4 186.1,171.9 194.2,178.1 202.2,171.6 210.3,180.3 218.4,177.7 226.5,175.2 234.6,176.9 242.7,163.1 250.8,149.1 258.9,170.6 267.0,168.3 275.1,161.5 283.1,169.0 291.2,180.5 299.3,163.8 307.4,172.9 315.5,178.2 323.6,177.0 331.7,179.1 339.8,178.1 347.9,173.7 356.0,170.1 364.0,165.5 372.1,171.2 380.2,173.8 388.3,176.5 396.4,171.6 404.5,180.5 412.6,151.1 420.7,168.7 428.8,177.8 436.9,158.1 444.9,152.9 453.0,183.5 461.1,163.8 469.2,124.1 477.3,168.5 485.4,144.7 493.5,84.1 501.6,175.7 509.7,161.8 517.8,172.2 525.8,179.8 533.9,177.9 542.0,171.0 550.1,176.1 558.2,174.7 566.3,171.1 574.4,173.7 582.5,158.0 590.6,163.7 598.7,156.6 606.7,169.8 614.8,173.8 622.9,178.9 631.0,129.0 639.1,110.1 647.2,131.5 655.3,120.8 663.4,163.6 671.5,117.9 679.6,102.3 687.6,94.1 695.7,50.1 703.8,15.0 711.9,88.7 720.0,135.5 720,200" fill="url(#g)"/>
  <polyline points="0.0,183.8 8.1,183.9 16.2,183.4 24.3,183.9 32.4,183.7 40.4,183.1 48.5,182.7 56.6,183.6 64.7,185.0 72.8,183.6 80.9,182.8 89.0,184.9 97.1,183.0 105.2,143.3 113.3,169.1 121.3,176.0 129.4,178.7 137.5,184.3 145.6,161.9 153.7,181.3 161.8,179.0 169.9,162.9 178.0,173.4 186.1,171.9 194.2,178.1 202.2,171.6 210.3,180.3 218.4,177.7 226.5,175.2 234.6,176.9 242.7,163.1 250.8,149.1 258.9,170.6 267.0,168.3 275.1,161.5 283.1,169.0 291.2,180.5 299.3,163.8 307.4,172.9 315.5,178.2 323.6,177.0 331.7,179.1 339.8,178.1 347.9,173.7 356.0,170.1 364.0,165.5 372.1,171.2 380.2,173.8 388.3,176.5 396.4,171.6 404.5,180.5 412.6,151.1 420.7,168.7 428.8,177.8 436.9,158.1 444.9,152.9 453.0,183.5 461.1,163.8 469.2,124.1 477.3,168.5 485.4,144.7 493.5,84.1 501.6,175.7 509.7,161.8 517.8,172.2 525.8,179.8 533.9,177.9 542.0,171.0 550.1,176.1 558.2,174.7 566.3,171.1 574.4,173.7 582.5,158.0 590.6,163.7 598.7,156.6 606.7,169.8 614.8,173.8 622.9,178.9 631.0,129.0 639.1,110.1 647.2,131.5 655.3,120.8 663.4,163.6 671.5,117.9 679.6,102.3 687.6,94.1 695.7,50.1 703.8,15.0 711.9,88.7 720.0,135.5" fill="none" stroke="#2f65c8" stroke-width="4" stroke-linecap="round" stroke-linejoin="round"/>
</svg>