<svg xmlns="http://www.w3.org/2000/svg" viewBox="0 0 720 200">
  <defs>
    <linearGradient id="g" x1="0" y1="0" x2="0" y2="1">
      <stop offset="0%" stop-color="#2f65c8" stop-opacity="0.18"/>
      <stop offset="100%" stop-color="#2f65c8" stop-opacity="0.02"/>
    </linearGradient>
  </defs>
  <polygon points="0,200 0.0,185.0 8.1,185.0 16.2,185.0 24.3,185.0 32.4,184.9 40.4,184.9 48.5,185.0 56.6,184.9 64.7,184.8 72.8,184.9 80.9,184.9 89.0,185.0 97.1,184.9 105.2,184.6 113.3,184.9 121.3,183.2 129.4,184.8 137.5,183.4 145.6,183.5 153.7,184.0 161.8,185.0 169.9,185.0 178.0,184.1 186.1,183.9 194.2,183.9 202.2,183.8 210.3,184.3 218.4,183.8 226.5,183.7 234.6,183.3 242.7,182.4 250.8,184.4 258.9,183.5 267.0,184.6 275.1,182.6 283.1,182.1 291.2,183.5 299.3,183.2 307.4,182.5 315.5,182.8 323.6,183.0 331.7,183.6 339.8,182.4 347.9,183.1 356.0,183.3 364.0,184.2 372.1,183.8 380.2,178.4 388.3,183.6 396.4,184.3 404.5,185.0 412.6,183.3 420.7,183.3 428.8,183.9 436.9,179.6 444.9,181.3 453.0,181.4 461.1,183.8 469.2,181.2 477.3,178.0 485.4,180.6 493.5,181.0 501.6,179.9 509.7,165.1 517.8,156.6 525.8,103.8 533.9,141.2 542.0,15.0 550.1,89.5 558.2,102.4 566.3,150.6 574.4,82.7 582.5,131.2 590.6,113.5 598.7,136.5 606.7,163.7 614.8,171.9 622.9,154.8 631.0,144.9 639.1,146.9 647.2,97.7 655.3,120.0 663.4,137.5 671.5,143.2 679.6,135.6 687.6,80.0 695.7,145.7 703.8,66.3 711.9,75.7 720.0,93.9 720,200" fill="url(#g)"/>
  <polyline points="0.0,185.0 8.1,185.0 16.2,185.0 24.3,185.0 32.4,184.9 40.4,184.9 48.5,185.0 56.6,184.9 64.7,184.8 72.8,184.9 80.9,184.9 89.0,185.0 97.1,184.9 105.2,184.6 113.3,184.9 121.3,183.2 129.4,184.8 137.5,183.4 145.6,183.5 153.7,184.0 161.8,185.0 169.9,185.0 178.0,184.1 186.1,183.9 194.2,183.9 202.2,183.8 210.3,184.3 218.4,183.8 226.5,183.7 234.6,183.3 242.7,182.4 250.8,184.4 258.9,183.5 267.0,184.6 275.1,182.6 283.1,182.1 291.2,183.5 299.3,183.2 307.4,182.5 315.5,182.8 323.6,183.0 331.7,183.6 339.8,182.4 347.9,183.1 356.0,183.3 364.0,184.2 372.1,183.8 380.2,178.4 388.3,183.6 396.4,184.3 404.5,185.0 412.6,183.3 420.7,183.3 428.8,183.9 436.9,179.6 444.9,181.3 453.0,181.4 461.1,183.8 469.2,181.2 477.3,178.0 485.4,180.6 493.5,181.0 501.6,179.9 509.7,165.1 517.8,156.6 525.8,103.8 533.9,141.2 542.0,15.0 550.1,89.5 558.2,102.4 566.3,150.6 574.4,82.7 582.5,131.2 590.6,113.5 598.7,136.5 606.7,163.7 614.8,171.9 622.9,154.8 631.0,144.9 639.1,146.9 647.2,97.7 655.3,120.0 663.4,137.5 671.5,143.2 679.6,135.6 687.6,80.0 695.7,145.7 703.8,66.3 711.9,75.7 720.0,93.9" fill="none" stroke="#2f65c8" stroke-width="4" stroke-linecap="round" stroke-linejoin="round"/>
</svg>