<svg xmlns="http://www.w3.org/2000/svg" viewBox="0 0 720 200">
  <defs>
    <linearGradient id="g" x1="0" y1="0" x2="0" y2="1">
      <stop offset="0%" stop-color="#2f65c8" stop-opacity="0.18"/>
      <stop offset="100%" stop-color="#2f65c8" stop-opacity="0.02"/>
    </linearGradient>
  </defs>
  <polygon points="0,200 0.0,94.0 8.1,159.6 16.2,144.6 24.3,147.0 32.4,150.8 40.4,162.1 48.5,185.0 56.6,171.6 64.7,158.8 72.8,170.0 80.9,157.7 89.0,157.7 97.1,185.0 105.2,157.7 113.3,174.3 121.3,168.3 129.4,185.0 137.5,178.7 145.6,164.0 153.7,185.0 161.8,175.2 169.9,167.5 178.0,185.0 186.1,171.6 194.2,169.2 202.2,132.3 210.3,144.3 218.4,165.3 226.5,161.8 234.6,159.3 242.7,157.7 250.8,185.0 258.9,157.7 267.0,175.2 275.1,167.5 283.1,164.5 291.2,178.2 299.3,172.7 307.4,170.0 315.5,157.7 323.6,180.6 331.7,181.4 339.8,162.3 347.9,161.0 356.0,180.9 364.0,161.8 372.1,185.0 380.2,157.7 388.3,166.7 396.4,180.9 404.5,170.8 412.6,167.0 420.7,182.3 428.8,170.5 436.9,168.9 444.9,123.0 453.0,143.7 461.1,150.3 469.2,154.7 477.3,140.7 485.4,147.6 493.5,132.9 501.6,92.6 509.7,111.9 517.8,146.5 525.8,149.9 533.9,142.9 542.0,143.6 550.1,155.2 558.2,151.0 566.3,129.8 574.4,129.8 582.5,61.8 590.6,53.2 598.7,19.2 606.7,34.3 614.8,38.2 622.9,15.0 631.0,25.6 639.1,35.8 647.2,47.3 655.3,73.9 663.4,104.9 671.5,132.5 679.6,80.2 687.6,96.4 695.7,103.6 703.8,71.9 711.9,84.3 720.0,57.7 720,200" fill="url(#g)"/>
  <polyline points="0.0,94.0 8.1,159.6 16.2,144.6 24.3,147.0 32.4,150.8 40.4,162.1 48.5,185.0 56.6,171.6 64.7,158.8 72.8,170.0 80.9,157.7 89.0,157.7 97.1,185.0 105.2,157.7 113.3,174.3 121.3,168.3 129.4,185.0 137.5,178.7 145.6,164.0 153.7,185.0 161.8,175.2 169.9,167.5 178.0,185.0 186.1,171.6 194.2,169.2 202.2,132.3 210.3,144.3 218.4,165.3 226.5,161.8 234.6,159.3 242.7,157.7 250.8,185.0 258.9,157.7 267.0,175.2 275.1,167.5 283.1,164.5 291.2,178.2 299.3,172.7 307.4,170.0 315.5,157.7 323.6,180.6 331.7,181.4 339.8,162.3 347.9,161.0 356.0,180.9 364.0,161.8 372.1,185.0 380.2,157.7 388.3,166.7 396.4,180.9 404.5,170.8 412.6,167.0 420.7,182.3 428.8,170.5 436.9,168.9 444.9,123.0 453.0,143.7 461.1,150.3 469.2,154.7 477.3,140.7 485.4,147.6 493.5,132.9 501.6,92.6 509.7,111.9 517.8,146.5 525.8,149.9 533.9,142.9 542.0,143.6 550.1,155.2 558.2,151.0 566.3,129.8 574.4,129.8 582.5,61.8 590.6,53.2 598.7,19.2 606.7,34.3 614.8,38.2 622.9,15.0 631.0,25.6 639.1,35.8 647.2,47.3 655.3,73.9 663.4,104.9 671.5,132.5 679.6,80.2 687.6,96.4 695.7,103.6 703.8,71.9 711.9,84.3 720.0,57.7" fill="none" stroke="#2f65c8" stroke-width="4" stroke-linecap="round" stroke-linejoin="round"/>
</svg>