<svg xmlns="http://www.w3.org/2000/svg" viewBox="0 0 720 200">
  <defs>
    <linearGradient id="g" x1="0" y1="0" x2="0" y2="1">
      <stop offset="0%" stop-color="#2f65c8" stop-opacity="0.18"/>
      <stop offset="100%" stop-color="#2f65c8" stop-opacity="0.02"/>
    </linearGradient>
  </defs>
  <polygon points="0,200 0.0,134.8 8.1,145.9 16.2,156.0 24.3,152.2 32.4,170.8 40.4,154.4 48.5,136.5 56.6,143.3 64.7,135.6 72.8,152.2 80.9,136.1 89.0,143.3 97.1,138.6 105.2,138.2 113.3,143.7 121.3,108.8 129.4,112.7 137.5,142.5 145.6,142.5 153.7,129.7 161.8,146.3 169.9,143.3 178.0,134.8 186.1,137.8 194.2,133.9 202.2,128.8 210.3,157.3 218.4,127.6 226.5,142.5 234.6,153.4 242.7,160.1 250.8,146.8 258.9,149.3 267.0,150.6 275.1,148.1 283.1,145.5 291.2,142.1 299.3,144.6 307.4,130.7 315.5,136.7 323.6,138.6 331.7,139.9 339.8,144.0 347.9,135.8 356.0,132.5 364.0,135.8 372.1,153.6 380.2,156.6 388.3,123.1 396.4,163.3 404.5,127.6 412.6,127.9 420.7,100.1 428.8,100.4 436.9,75.5 444.9,72.9 453.0,83.8 461.1,15.0 469.2,23.2 477.3,64.2 485.4,105.6 493.5,42.7 501.6,66.7 509.7,43.2 517.8,76.9 525.8,104.2 533.9,91.6 542.0,99.8 550.1,126.4 558.2,78.9 566.3,30.3 574.4,32.2 582.5,60.0 590.6,83.7 598.7,50.5 606.7,60.3 614.8,93.1 622.9,89.3 631.0,56.5 639.1,105.8 647.2,74.8 655.3,26.5 663.4,72.1 671.5,124.1 679.6,85.1 687.6,59.0 695.7,61.3 703.8,71.4 711.9,64.6 720.0,56.0 720,200" fill="url(#g)"/>
  <polyline points="0.0,134.8 8.1,145.9 16.2,156.0 24.3,152.2 32.4,170.8 40.4,154.4 48.5,136.5 56.6,143.3 64.7,135.6 72.8,152.2 80.9,136.1 89.0,143.3 97.1,138.6 105.2,138.2 113.3,143.7 121.3,108.8 129.4,112.7 137.5,142.5 145.6,142.5 153.7,129.7 161.8,146.3 169.9,143.3 178.0,134.8 186.1,137.8 194.2,133.9 202.2,128.8 210.3,157.3 218.4,127.6 226.5,142.5 234.6,153.4 242.7,160.1 250.8,146.8 258.9,149.3 267.0,150.6 275.1,148.1 283.1,145.5 291.2,142.1 299.3,144.6 307.4,130.7 315.5,136.7 323.6,138.6 331.7,139.9 339.8,144.0 347.9,135.8 356.0,132.5 364.0,135.8 372.1,153.6 380.2,156.6 388.3,123.1 396.4,163.3 404.5,127.6 412.6,127.9 420.7,100.1 428.8,100.4 436.9,75.5 444.9,72.9 453.0,83.8 461.1,15.0 469.2,23.2 477.3,64.2 485.4,105.6 493.5,42.7 501.6,66.7 509.7,43.2 517.8,76.9 525.8,104.2 533.9,91.6 542.0,99.8 550.1,126.4 558.2,78.9 566.3,30.3 574.4,32.2 582.5,60.0 590.6,83.7 598.7,50.5 606.7,60.3 614.8,93.1 622.9,89.3 631.0,56.5 639.1,105.8 647.2,74.8 655.3,26.5 663.4,72.1 671.5,124.1 679.6,85.1 687.6,59.0 695.7,61.3 703.8,71.4 711.9,64.6 720.0,56.0" fill="none" stroke="#2f65c8" stroke-width="4" stroke-linecap="round" stroke-linejoin="round"/>
</svg>