<svg xmlns="http://www.w3.org/2000/svg" viewBox="0 0 720 200">
  <defs>
    <linearGradient id="g" x1="0" y1="0" x2="0" y2="1">
      <stop offset="0%" stop-color="#2f65c8" stop-opacity="0.18"/>
      <stop offset="100%" stop-color="#2f65c8" stop-opacity="0.02"/>
    </linearGradient>
  </defs>
  <polygon points="0,200 0.0,181.7 8.1,185.0 16.2,182.4 24.3,182.0 32.4,184.2 40.4,185.0 48.5,184.7 56.6,183.0 64.7,182.1 72.8,178.7 80.9,173.2 89.0,173.5 97.1,177.7 105.2,171.0 113.3,179.0 121.3,170.1 129.4,157.4 137.5,165.0 145.6,160.1 153.7,159.2 161.8,185.0 169.9,136.2 178.0,155.0 186.1,118.0 194.2,169.5 202.2,138.3 210.3,144.1 218.4,142.2 226.5,139.2 234.6,158.5 242.7,156.0 250.8,158.3 258.9,153.1 267.0,164.0 275.1,161.1 283.1,166.8 291.2,157.9 299.3,162.6 307.4,166.3 315.5,168.8 323.6,169.3 331.7,172.2 339.8,168.1 347.9,171.4 356.0,164.5 364.0,174.5 372.1,170.0 380.2,168.5 388.3,153.9 396.4,185.0 404.5,161.6 412.6,143.3 420.7,156.5 428.8,145.6 436.9,171.5 444.9,168.1 453.0,162.0 461.1,146.1 469.2,158.2 477.3,154.8 485.4,158.1 493.5,159.2 501.6,166.6 509.7,161.7 517.8,159.5 525.8,157.2 533.9,156.4 542.0,157.4 550.1,163.7 558.2,157.9 566.3,161.7 574.4,160.1 582.5,145.4 590.6,149.9 598.7,145.8 606.7,149.5 614.8,150.2 622.9,140.4 631.0,152.4 639.1,147.2 647.2,123.3 655.3,51.0 663.4,107.5 671.5,153.5 679.6,15.0 687.6,95.9 695.7,87.6 703.8,75.5 711.9,31.1 720.0,90.4 720,200" fill="url(#g)"/>
  <polyline points="0.0,181.7 8.1,185.0 16.2,182.4 24.3,182.0 32.4,184.2 40.4,185.0 48.5,184.7 56.6,183.0 64.7,182.1 72.8,178.7 80.9,173.2 89.0,173.5 97.1,177.7 105.2,171.0 113.3,179.0 121.3,170.1 129.4,157.4 137.5,165.0 145.6,160.1 153.7,159.2 161.8,185.0 169.9,136.2 178.0,155.0 186.1,118.0 194.2,169.5 202.2,138.3 210.3,144.1 218.4,142.2 226.5,139.2 234.6,158.5 242.7,156.0 250.8,158.3 258.9,153.1 267.0,164.0 275.1,161.1 283.1,166.8 291.2,157.9 299.3,162.6 307.4,166.3 315.5,168.8 323.6,169.3 331.7,172.2 339.8,168.1 347.9,171.4 356.0,164.5 364.0,174.5 372.1,170.0 380.2,168.5 388.3,153.9 396.4,185.0 404.5,161.6 412.6,143.3 420.7,156.5 428.8,145.6 436.9,171.5 444.9,168.1 453.0,162.0 461.1,146.1 469.2,158.2 477.3,154.8 485.4,158.1 493.5,159.2 501.6,166.6 509.7,161.7 517.8,159.5 525.8,157.2 533.9,156.4 542.0,157.4 550.1,163.7 558.2,157.9 566.3,161.7 574.4,160.1 582.5,145.4 590.6,149.9 598.7,145.8 606.7,149.5 614.8,150.2 622.9,140.4 631.0,152.4 639.1,147.2 647.2,123.3 655.3,51.0 663.4,107.5 671.5,153.5 679.6,15.0 687.6,95.9 695.7,87.6 703.8,75.5 711.9,31.1 720.0,90.4" fill="none" stroke="#2f65c8" stroke-width="4" stroke-linecap="round" stroke-linejoin="round"/>
</svg>