<svg xmlns="http://www.w3.org/2000/svg" viewBox="0 0 720 200">
  <defs>
    <linearGradient id="g" x1="0" y1="0" x2="0" y2="1">
      <stop offset="0%" stop-color="#2f65c8" stop-opacity="0.18"/>
      <stop offset="100%" stop-color="#2f65c8" stop-opacity="0.02"/>
    </linearGradient>
  </defs>
  <polygon points="0,200 0.0,185.0 8.1,185.0 16.2,185.0 24.3,185.0 32.4,185.0 40.4,185.0 48.5,185.0 56.6,185.0 64.7,185.0 72.8,185.0 80.9,185.0 89.0,185.0 97.1,185.0 105.2,185.0 113.3,185.0 121.3,185.0 129.4,185.0 137.5,185.0 145.6,185.0 153.7,185.0 161.8,185.0 169.9,185.0 178.0,185.0 186.1,185.0 194.2,185.0 202.2,185.0 210.3,185.0 218.4,185.0 226.5,185.0 234.6,185.0 242.7,185.0 250.8,180.5 258.9,183.8 267.0,179.8 275.1,181.2 283.1,179.0 291.2,179.7 299.3,178.0 307.4,146.3 315.5,116.0 323.6,137.0 331.7,128.8 339.8,126.6 347.9,114.5 356.0,108.5 364.0,107.0 372.1,145.0 380.2,121.0 388.3,75.0 396.4,144.4 404.5,77.8 412.6,70.3 420.7,137.8 428.8,108.1 436.9,117.4 444.9,113.5 453.0,101.5 461.1,97.4 469.2,92.5 477.3,15.0 485.4,48.6 493.5,62.3 501.6,68.7 509.7,90.9 517.8,95.1 525.8,101.4 533.9,113.6 542.0,94.9 550.1,125.6 558.2,128.6 566.3,126.7 574.4,124.4 582.5,126.6 590.6,114.1 598.7,130.3 606.7,128.1 614.8,129.8 622.9,109.7 631.0,105.4 639.1,105.3 647.2,112.9 655.3,116.0 663.4,127.0 671.5,146.6 679.6,121.7 687.6,123.2 695.7,122.7 703.8,128.6 711.9,128.5 720.0,135.7 720,200" fill="url(#g)"/>
  <polyline points="0.0,185.0 8.1,185.0 16.2,185.0 24.3,185.0 32.4,185.0 40.4,185.0 48.5,185.0 56.6,185.0 64.7,185.0 72.8,185.0 80.9,185.0 89.0,185.0 97.1,185.0 105.2,185.0 113.3,185.0 121.3,185.0 129.4,185.0 137.5,185.0 145.6,185.0 153.7,185.0 161.8,185.0 169.9,185.0 178.0,185.0 186.1,185.0 194.2,185.0 202.2,185.0 210.3,185.0 218.4,185.0 226.5,185.0 234.6,185.0 242.7,185.0 250.8,180.5 258.9,183.8 267.0,179.8 275.1,181.2 283.1,179.0 291.2,179.7 299.3,178.0 307.4,146.3 315.5,116.0 323.6,137.0 331.7,128.8 339.8,126.6 347.9,114.5 356.0,108.5 364.0,107.0 372.1,145.0 380.2,121.0 388.3,75.0 396.4,144.4 404.5,77.8 412.6,70.3 420.7,137.8 428.8,108.1 436.9,117.4 444.9,113.5 453.0,101.5 461.1,97.4 469.2,92.5 477.3,15.0 485.4,48.6 493.5,62.3 501.6,68.7 509.7,90.9 517.8,95.1 525.8,101.4 533.9,113.6 542.0,94.9 550.1,125.6 558.2,128.6 566.3,126.7 574.4,124.4 582.5,126.6 590.6,114.1 598.7,130.3 606.7,128.1 614.8,129.8 622.9,109.7 631.0,105.4 639.1,105.3 647.2,112.9 655.3,116.0 663.4,127.0 671.5,146.6 679.6,121.7 687.6,123.2 695.7,122.7 703.8,128.6 711.9,128.5 720.0,135.7" fill="none" stroke="#2f65c8" stroke-width="4" stroke-linecap="round" stroke-linejoin="round"/>
</svg>