<svg xmlns="http://www.w3.org/2000/svg" viewBox="0 0 720 200">
  <defs>
    <linearGradient id="g" x1="0" y1="0" x2="0" y2="1">
      <stop offset="0%" stop-color="#2f65c8" stop-opacity="0.18"/>
      <stop offset="100%" stop-color="#2f65c8" stop-opacity="0.02"/>
    </linearGradient>
  </defs>
  <polygon points="0,200 0.0,185.0 8.1,185.0 16.2,185.0 24.3,185.0 32.4,185.0 40.4,185.0 48.5,185.0 56.6,185.0 64.7,185.0 72.8,185.0 80.9,185.0 89.0,185.0 97.1,185.0 105.2,185.0 113.3,185.0 121.3,185.0 129.4,185.0 137.5,185.0 145.6,185.0 153.7,185.0 161.8,185.0 169.9,185.0 178.0,185.0 186.1,185.0 194.2,185.0 202.2,185.0 210.3,185.0 218.4,185.0 226.5,185.0 234.6,185.0 242.7,185.0 250.8,185.0 258.9,185.0 267.0,185.0 275.1,185.0 283.1,185.0 291.2,185.0 299.3,185.0 307.4,185.0 315.5,185.0 323.6,185.0 331.7,185.0 339.8,185.0 347.9,185.0 356.0,185.0 364.0,185.0 372.1,185.0 380.2,185.0 388.3,185.0 396.4,185.0 404.5,185.0 412.6,185.0 420.7,185.0 428.8,185.0 436.9,185.0 444.9,185.0 453.0,185.0 461.1,185.0 469.2,185.0 477.3,185.0 485.4,185.0 493.5,185.0 501.6,185.0 509.7,185.0 517.8,185.0 525.8,183.2 533.9,177.6 542.0,176.1 550.1,176.1 558.2,174.2 566.3,160.0 574.4,128.7 582.5,124.5 590.6,127.9 598.7,107.1 606.7,106.2 614.8,116.4 622.9,69.0 631.0,72.0 639.1,72.9 647.2,63.7 655.3,44.5 663.4,51.1 671.5,39.5 679.6,21.2 687.6,15.0 695.7,21.0 703.8,40.5 711.9,49.0 720.0,89.0 720,200" fill="url(#g)"/>
  <polyline points="0.0,185.0 8.1,185.0 16.2,185.0 24.3,185.0 32.4,185.0 40.4,185.0 48.5,185.0 56.6,185.0 64.7,185.0 72.8,185.0 80.9,185.0 89.0,185.0 97.1,185.0 105.2,185.0 113.3,185.0 121.3,185.0 129.4,185.0 137.5,185.0 145.6,185.0 153.7,185.0 161.8,185.0 169.9,185.0 178.0,185.0 186.1,185.0 194.2,185.0 202.2,185.0 210.3,185.0 218.4,185.0 226.5,185.0 234.6,185.0 242.7,185.0 250.8,185.0 258.9,185.0 267.0,185.0 275.1,185.0 283.1,185.0 291.2,185.0 299.3,185.0 307.4,185.0 315.5,185.0 323.6,185.0 331.7,185.0 339.8,185.0 347.9,185.0 356.0,185.0 364.0,185.0 372.1,185.0 380.2,185.0 388.3,185.0 396.4,185.0 404.5,185.0 412.6,185.0 420.7,185.0 428.8,185.0 436.9,185.0 444.9,185.0 453.0,185.0 461.1,185.0 469.2,185.0 477.3,185.0 485.4,185.0 493.5,185.0 501.6,185.0 509.7,185.0 517.8,185.0 525.8,183.2 533.9,177.6 542.0,176.1 550.1,176.1 558.2,174.2 566.3,160.0 574.4,128.7 582.5,124.5 590.6,127.9 598.7,107.1 606.7,106.2 614.8,116.4 622.9,69.0 631.0,72.0 639.1,72.9 647.2,63.7 655.3,44.5 663.4,51.1 671.5,39.5 679.6,21.2 687.6,15.0 695.7,21.0 703.8,40.5 711.9,49.0 720.0,89.0" fill="none" stroke="#2f65c8" stroke-width="4" stroke-linecap="round" stroke-linejoin="round"/>
</svg>