<svg xmlns="http://www.w3.org/2000/svg" viewBox="0 0 720 200">
  <defs>
    <linearGradient id="g" x1="0" y1="0" x2="0" y2="1">
      <stop offset="0%" stop-color="#2f65c8" stop-opacity="0.18"/>
      <stop offset="100%" stop-color="#2f65c8" stop-opacity="0.02"/>
    </linearGradient>
  </defs>
  <polygon points="0,200 0.0,185.0 8.1,185.0 16.2,185.0 24.3,185.0 32.4,185.0 40.4,185.0 48.5,185.0 56.6,185.0 64.7,185.0 72.8,185.0 80.9,185.0 89.0,185.0 97.1,185.0 105.2,185.0 113.3,185.0 121.3,185.0 129.4,185.0 137.5,185.0 145.6,185.0 153.7,185.0 161.8,185.0 169.9,185.0 178.0,185.0 186.1,185.0 194.2,185.0 202.2,185.0 210.3,185.0 218.4,185.0 226.5,185.0 234.6,185.0 242.7,185.0 250.8,185.0 258.9,185.0 267.0,185.0 275.1,185.0 283.1,185.0 291.2,185.0 299.3,185.0 307.4,185.0 315.5,185.0 323.6,185.0 331.7,185.0 339.8,185.0 347.9,185.0 356.0,185.0 364.0,185.0 372.1,185.0 380.2,185.0 388.3,185.0 396.4,185.0 404.5,185.0 412.6,181.9 420.7,184.2 428.8,178.9 436.9,181.9 444.9,175.5 453.0,180.4 461.1,176.2 469.2,174.7 477.3,179.3 485.4,178.3 493.5,177.6 501.6,172.9 509.7,177.3 517.8,175.9 525.8,182.6 533.9,174.7 542.0,174.7 550.1,179.9 558.2,176.8 566.3,177.1 574.4,180.8 582.5,177.6 590.6,175.0 598.7,175.3 606.7,171.7 614.8,171.1 622.9,163.7 631.0,114.0 639.1,129.9 647.2,136.4 655.3,141.1 663.4,129.5 671.5,130.6 679.6,125.4 687.6,119.5 695.7,117.6 703.8,97.8 711.9,15.0 720.0,80.0 720,200" fill="url(#g)"/>
  <polyline points="0.0,185.0 8.1,185.0 16.2,185.0 24.3,185.0 32.4,185.0 40.4,185.0 48.5,185.0 56.6,185.0 64.7,185.0 72.8,185.0 80.9,185.0 89.0,185.0 97.1,185.0 105.2,185.0 113.3,185.0 121.3,185.0 129.4,185.0 137.5,185.0 145.6,185.0 153.7,185.0 161.8,185.0 169.9,185.0 178.0,185.0 186.1,185.0 194.2,185.0 202.2,185.0 210.3,185.0 218.4,185.0 226.5,185.0 234.6,185.0 242.7,185.0 250.8,185.0 258.9,185.0 267.0,185.0 275.1,185.0 283.1,185.0 291.2,185.0 299.3,185.0 307.4,185.0 315.5,185.0 323.6,185.0 331.7,185.0 339.8,185.0 347.9,185.0 356.0,185.0 364.0,185.0 372.1,185.0 380.2,185.0 388.3,185.0 396.4,185.0 404.5,185.0 412.6,181.9 420.7,184.2 428.8,178.9 436.9,181.9 444.9,175.5 453.0,180.4 461.1,176.2 469.2,174.7 477.3,179.3 485.4,178.3 493.5,177.6 501.6,172.9 509.7,177.3 517.8,175.9 525.8,182.6 533.9,174.7 542.0,174.7 550.1,179.9 558.2,176.8 566.3,177.1 574.4,180.8 582.5,177.6 590.6,175.0 598.7,175.3 606.7,171.7 614.8,171.1 622.9,163.7 631.0,114.0 639.1,129.9 647.2,136.4 655.3,141.1 663.4,129.5 671.5,130.6 679.6,125.4 687.6,119.5 695.7,117.6 703.8,97.8 711.9,15.0 720.0,80.0" fill="none" stroke="#2f65c8" stroke-width="4" stroke-linecap="round" stroke-linejoin="round"/>
</svg>