<svg xmlns="http://www.w3.org/2000/svg" viewBox="0 0 720 200">
  <defs>
    <linearGradient id="g" x1="0" y1="0" x2="0" y2="1">
      <stop offset="0%" stop-color="#2f65c8" stop-opacity="0.18"/>
      <stop offset="100%" stop-color="#2f65c8" stop-opacity="0.02"/>
    </linearGradient>
  </defs>
  <polygon points="0,200 0.0,185.0 8.1,185.0 16.2,185.0 24.3,185.0 32.4,185.0 40.4,185.0 48.5,185.0 56.6,185.0 64.7,185.0 72.8,185.0 80.9,185.0 89.0,185.0 97.1,185.0 105.2,185.0 113.3,185.0 121.3,185.0 129.4,185.0 137.5,185.0 145.6,185.0 153.7,185.0 161.8,185.0 169.9,185.0 178.0,185.0 186.1,185.0 194.2,185.0 202.2,185.0 210.3,185.0 218.4,185.0 226.5,185.0 234.6,185.0 242.7,185.0 250.8,185.0 258.9,185.0 267.0,185.0 275.1,185.0 283.1,185.0 291.2,185.0 299.3,185.0 307.4,185.0 315.5,183.6 323.6,179.5 331.7,173.9 339.8,177.0 347.9,176.4 356.0,178.7 364.0,175.0 372.1,172.4 380.2,182.1 388.3,177.3 396.4,184.1 404.5,177.0 412.6,165.9 420.7,157.4 428.8,161.9 436.9,172.0 444.9,159.2 453.0,170.7 461.1,167.2 469.2,164.6 477.3,164.0 485.4,169.3 493.5,165.6 501.6,157.9 509.7,170.6 517.8,164.3 525.8,154.4 533.9,164.5 542.0,149.8 550.1,150.4 558.2,87.9 566.3,120.1 574.4,132.7 582.5,151.3 590.6,149.2 598.7,121.9 606.7,117.3 614.8,110.0 622.9,98.0 631.0,112.8 639.1,87.0 647.2,59.9 655.3,51.7 663.4,61.5 671.5,113.6 679.6,83.0 687.6,46.3 695.7,52.9 703.8,15.0 711.9,36.9 720.0,47.8 720,200" fill="url(#g)"/>
  <polyline points="0.0,185.0 8.1,185.0 16.2,185.0 24.3,185.0 32.4,185.0 40.4,185.0 48.5,185.0 56.6,185.0 64.7,185.0 72.8,185.0 80.9,185.0 89.0,185.0 97.1,185.0 105.2,185.0 113.3,185.0 121.3,185.0 129.4,185.0 137.5,185.0 145.6,185.0 153.7,185.0 161.8,185.0 169.9,185.0 178.0,185.0 186.1,185.0 194.2,185.0 202.2,185.0 210.3,185.0 218.4,185.0 226.5,185.0 234.6,185.0 242.7,185.0 250.8,185.0 258.9,185.0 267.0,185.0 275.1,185.0 283.1,185.0 291.2,185.0 299.3,185.0 307.4,185.0 315.5,183.6 323.6,179.5 331.7,173.9 339.8,177.0 347.9,176.4 356.0,178.7 364.0,175.0 372.1,172.4 380.2,182.1 388.3,177.3 396.4,184.1 404.5,177.0 412.6,165.9 420.7,157.4 428.8,161.9 436.9,172.0 444.9,159.2 453.0,170.7 461.1,167.2 469.2,164.6 477.3,164.0 485.4,169.3 493.5,165.6 501.6,157.9 509.7,170.6 517.8,164.3 525.8,154.4 533.9,164.5 542.0,149.8 550.1,150.4 558.2,87.9 566.3,120.1 574.4,132.7 582.5,151.3 590.6,149.2 598.7,121.9 606.7,117.3 614.8,110.0 622.9,98.0 631.0,112.8 639.1,87.0 647.2,59.9 655.3,51.7 663.4,61.5 671.5,113.6 679.6,83.0 687.6,46.3 695.7,52.9 703.8,15.0 711.9,36.9 720.0,47.8" fill="none" stroke="#2f65c8" stroke-width="4" stroke-linecap="round" stroke-linejoin="round"/>
</svg>